<svg xmlns="http://www.w3.org/2000/svg" version="1.1" xmlns:xlink="http://www.w3.org/1999/xlink" xmlns:svgjs="http://svgjs.com/svgjs" width="1440" height="560" preserveAspectRatio="none" viewBox="0 0 1440 560"><g mask="url(&quot;#SvgjsMask1019&quot;)" fill="none"><rect width="1440" height="560" x="0" y="0" fill="rgba(29, 30, 33, 1)"></rect><path d="M 0,375 C 57.6,324.8 172.8,95 288,124 C 403.2,153 460.8,532.6 576,520 C 691.2,507.4 748.8,74.8 864,61 C 979.2,47.2 1036.8,419.6 1152,451 C 1267.2,482.4 1382.4,264.6 1440,218L1440 560L0 560z" fill="rgba(36, 37, 41, 1)"></path><path d="M 0,342 C 96,306 288,150 480,162 C 672,174 768,407.6 960,402 C 1152,396.4 1344,187.6 1440,134L1440 560L0 560z" fill="rgba(58, 59, 62, 1)"></path></g><defs><mask id="SvgjsMask1019"><rect width="1440" height="560" fill="#ffffff"></rect></mask></defs></svg>